:SAMPLES-PER-SECOND 30
:FULLY-SPECIFIED
:DEGREES
260
root  7.02662 18.1344 -59.9035 -122.443 5.36601 -177.615
RightUpLeg  -62.1929 -0.768589 10.5167
RightLeg  111.81 23.1292 -15.9243
RightFoot  -2.02772 0.203384 -2.09409
RightToes  -5.82073e-011 -3.18055e-015 -2.98177e-016
Spine  34.0048 -2.96569 8.80566
Spine1  -6.95197 -0.0649467 -8.18939
HEad  -16.2948 0.116735 -0.258786
LeftShoulder1  -3.88251e-019 9.70628e-020 -3.87848e-018
LeftArm  -1.57542 -24.7644 -66.3735
LeftForeArm  16.1309 -1.6319 -7.75166
LeftHand  -12.4089 -11.1713 76.1501
RightShoulder  2.6277 7.92478 11.9717
RightArm  2.76821 21.8191 71.6855
RightForeArm  6.30055 5.22381 -6.51317
RightHand  -11.058 9.92421 -72.2311
LeftUpLeg  -61.3512 4.28468 -10.4943
LeftLeg  114.952 -20.7483 14.1766
LeftFoot  -16.5666 -0.39345 -11.4606
LeftToes  -3.44176e-011 4.05998e-011 -5.21293e-012
261
root  7.0201 18.1398 -59.886 -122.533 5.35283 -177.61
RightUpLeg  -62.1778 -0.79392 10.5339
RightLeg  111.844 23.1547 -15.9518
RightFoot  -1.97035 0.195446 -2.0016
RightToes  -5.82073e-011 -3.18055e-015 -2.98177e-016
Spine  34.1395 -2.96528 8.84555
Spine1  -6.99588 -0.0498719 -8.20564
HEad  -16.5639 0.143945 -0.293155
LeftShoulder1  -3.88251e-019 9.70628e-020 -3.87848e-018
LeftArm  -1.4017 -24.7284 -66.3794
LeftForeArm  15.9674 -1.63457 -7.77824
LeftHand  -12.3468 -11.1074 76.0907
RightShoulder  2.71156 8.02828 12.3787
RightArm  2.56954 21.7336 71.3661
RightForeArm  6.45682 5.65669 -6.79061
RightHand  -11.0595 9.98462 -72.024
LeftUpLeg  -61.3003 4.26857 -10.4836
LeftLeg  115.004 -20.752 14.1567
LeftFoot  -16.6417 -0.403464 -11.5304
LeftToes  -3.44176e-011 4.05998e-011 -5.21293e-012
262
root  7.02006 18.1492 -59.865 -122.713 5.3385 -177.688
RightUpLeg  -62.065 -0.903677 10.507
RightLeg  111.887 23.1802 -15.9739
RightFoot  -1.98562 0.199418 -2.03166
RightToes  -5.82073e-011 -3.18055e-015 -2.98177e-016
Spine  34.2999 -3.0318 8.872
Spine1  -6.89787 -0.080058 -8.25969
HEad  -16.6508 0.222697 -0.3012
LeftShoulder1  -3.88251e-019 9.70628e-020 -3.87848e-018
LeftArm  -1.2367 -24.8211 -66.2747
LeftForeArm  15.6522 -1.64347 -7.84938
LeftHand  -12.2468 -11.0048 75.9928
RightShoulder  2.80563 8.12573 12.8562
RightArm  2.41957 21.7837 71.1315
RightForeArm  6.6564 6.06975 -7.09165
RightHand  -11.0485 10.0254 -71.8253
LeftUpLeg  -61.1389 4.22172 -10.5105
LeftLeg  114.99 -20.7777 14.2083
LeftFoot  -16.8426 -0.441573 -12.0502
LeftToes  -3.44176e-011 4.05998e-011 -5.21293e-012
263
root  7.02501 18.1537 -59.8405 -122.87 5.31796 -177.767
RightUpLeg  -61.9679 -0.990639 10.4918
RightLeg  111.954 23.1994 -15.9693
RightFoot  -2.05346 0.212334 -2.15408
RightToes  -5.82073e-011 -3.18055e-015 -2.98177e-016
Spine  34.4897 -3.15188 8.93866
Spine1  -6.91435 -0.132111 -8.43902
HEad  -16.5511 0.370796 -0.394316
LeftShoulder1  -3.88251e-019 9.70628e-020 -3.87848e-018
LeftArm  -1.05144 -24.8622 -66.0884
LeftForeArm  15.3209 -1.66471 -7.9875
LeftHand  -12.1702 -10.9204 75.9376
RightShoulder  2.8671 8.17518 13.1858
RightArm  2.25771 21.8249 71.1395
RightForeArm  6.92019 6.2606 -7.35748
RightHand  -11.0272 10.0328 -71.694
LeftUpLeg  -61.0345 4.20764 -10.513
LeftLeg  115.02 -20.7946 14.2217
LeftFoot  -17.0822 -0.496806 -12.8807
LeftToes  -3.44176e-011 4.05998e-011 -5.21293e-012
264
root  7.04121 18.1534 -59.8158 -122.904 5.32315 -177.773
RightUpLeg  -61.9946 -0.924893 10.506
RightLeg  112.05 23.1967 -15.9073
RightFoot  -2.09013 0.217232 -2.19491
RightToes  -5.82073e-011 -3.18055e-015 -2.98177e-016
Spine  34.6611 -3.23908 9.01903
Spine1  -7.1332 -0.157053 -8.68149
HEad  -16.4393 0.517341 -0.595206
LeftShoulder1  -3.88251e-019 9.70628e-020 -3.87848e-018
LeftArm  -0.914838 -24.8041 -65.9378
LeftForeArm  15.1608 -1.67874 -8.07437
LeftHand  -12.1673 -10.9249 75.9089
RightShoulder  2.89263 8.18425 13.3389
RightArm  2.19384 21.7917 71.2421
RightForeArm  6.97552 6.33049 -7.45462
RightHand  -10.9924 10.0013 -71.6319
LeftUpLeg  -61.0874 4.28382 -10.4512
LeftLeg  115.129 -20.7748 14.1312
LeftFoot  -17.2991 -0.548095 -13.5872
LeftToes  -3.44176e-011 4.05998e-011 -5.21293e-012
265
root  7.07364 18.1569 -59.7882 -122.912 5.41621 -177.725
RightUpLeg  -62.0754 -0.726012 10.4965
RightLeg  112.163 23.1818 -15.8122
RightFoot  -2.04626 0.215649 -2.17016
RightToes  -5.82073e-011 -3.18055e-015 -2.98177e-016
Spine  34.8012 -3.2319 9.01583
Spine1  -7.32509 -0.136866 -8.82888
HEad  -16.4047 0.576689 -0.811119
LeftShoulder1  -3.88251e-019 9.70628e-020 -3.87848e-018
LeftArm  -1.14135 -24.7932 -65.9181
LeftForeArm  15.3631 -1.64461 -7.87672
LeftHand  -12.2052 -11.0266 75.727
RightShoulder  2.89213 8.17431 13.3505
RightArm  2.39754 21.8408 71.2738
RightForeArm  6.58047 6.38828 -7.28992
RightHand  -10.933 9.92702 -71.5979
LeftUpLeg  -61.1784 4.46029 -10.4549
LeftLeg  115.171 -20.8311 14.2059
LeftFoot  -17.3921 -0.564289 -13.7131
LeftToes  -3.44176e-011 4.05998e-011 -5.21293e-012
266
root  7.11685 18.1661 -59.7561 -122.988 5.63924 -177.721
RightUpLeg  -62.1451 -0.543237 10.4068
RightLeg  112.252 23.2103 -15.8121
RightFoot  -1.93409 0.223087 -2.2393
RightToes  -5.82073e-011 -3.18055e-015 -2.98177e-016
Spine  34.971 -3.19646 8.87488
Spine1  -7.46204 -0.147252 -8.89555
HEad  -16.2953 0.590656 -0.920366
LeftShoulder1  -3.88251e-019 9.70628e-020 -3.87848e-018
LeftArm  -1.8836 -24.8087 -65.9488
LeftForeArm  15.8921 -1.5567 -7.36787
LeftHand  -12.1783 -11.1304 75.2426
RightShoulder  2.84047 8.14475 13.0563
RightArm  2.66177 21.9429 71.4457
RightForeArm  5.97736 6.3043 -7.0306
RightHand  -10.873 9.8436 -71.5933
LeftUpLeg  -61.2161 4.70246 -10.7605
LeftLeg  114.963 -21.1156 14.8019
LeftFoot  -17.292 -0.53486 -13.2498
LeftToes  -3.44176e-011 4.05998e-011 -5.21293e-012
267
root  7.15783 18.1711 -59.73 -123.032 5.9402 -177.824
RightUpLeg  -62.273 -0.460906 10.2401
RightLeg  112.286 23.3027 -15.9636
RightFoot  -1.80475 0.237681 -2.38342
RightToes  -5.82073e-011 -3.18055e-015 -2.98177e-016
Spine  35.1922 -3.25241 8.67395
Spine1  -7.83788 -0.279725 -9.05444
HEad  -15.9888 0.657516 -0.85456
LeftShoulder1  -3.88251e-019 9.70628e-020 -3.87848e-018
LeftArm  -2.72184 -24.6317 -65.8222
LeftForeArm  16.3401 -1.47803 -6.9152
LeftHand  -12.0466 -11.1384 74.6091
RightShoulder  2.733 8.11063 12.4011
RightArm  2.59567 21.7848 71.9826
RightForeArm  5.67186 6.04003 -6.95741
RightHand  -10.8667 9.81376 -71.6679
LeftUpLeg  -61.3011 4.9319 -11.4027
LeftLeg  114.532 -21.5837 15.841
LeftFoot  -17.0999 -0.492003 -12.69
LeftToes  -3.44176e-011 4.05998e-011 -5.21293e-012
268
root  7.18635 18.1642 -59.7214 -122.93 6.1795 -177.961
RightUpLeg  -62.4799 -0.404592 10.0561
RightLeg  112.305 23.3724 -16.0814
RightFoot  -1.71704 0.241016 -2.41337
RightToes  -5.82073e-011 -3.18055e-015 -2.98177e-016
Spine  35.3868 -3.4043 8.57922
Spine1  -8.51774 -0.488147 -9.3294
HEad  -15.6658 0.749945 -0.654869
LeftShoulder1  -3.88251e-019 9.70628e-020 -3.87848e-018
LeftArm  -3.12367 -24.2326 -65.5197
LeftForeArm  16.3762 -1.46655 -6.85129
LeftHand  -11.903 -11.0671 74.1896
RightShoulder  2.64831 8.12409 11.8246
RightArm  2.29397 21.3298 72.5741
RightForeArm  5.80469 5.88146 -7.05378
RightHand  -10.9132 9.83833 -71.8141
LeftUpLeg  -61.4982 5.06912 -12.0735
LeftLeg  114.104 -22.0223 16.8423
LeftFoot  -17.0267 -0.476562 -12.4859
LeftToes  -3.44176e-011 4.05998e-011 -5.21293e-012
269
root  7.20178 18.153 -59.7259 -122.784 6.2415 -177.993
RightUpLeg  -62.6074 -0.280691 9.94998
RightLeg  112.363 23.3217 -15.9526
RightFoot  -1.69356 0.227476 -2.26679
RightToes  -5.82073e-011 -3.18055e-015 -2.98177e-016
Spine  35.5119 -3.54996 8.69659
Spine1  -9.15321 -0.628134 -9.5288
HEad  -15.5987 0.778539 -0.46601
LeftShoulder1  -3.88251e-019 9.70628e-020 -3.87848e-018
LeftArm  -3.12931 -23.8666 -65.265
LeftForeArm  16.1802 -1.49658 -7.02596
LeftHand  -11.8413 -10.9998 74.1341
RightShoulder  2.65826 8.20394 11.7771
RightArm  2.20946 20.9392 72.7745
RightForeArm  6.09606 6.01743 -7.06928
RightHand  -10.9346 9.83807 -71.9225
LeftUpLeg  -61.6634 5.12735 -12.3893
LeftLeg  113.873 -22.2821 17.4285
LeftFoot  -17.1724 -0.499253 -12.6591
LeftToes  -3.44176e-011 4.05998e-011 -5.21293e-012
270
root  7.21128 18.1505 -59.7287 -122.763 6.14339 -177.878
RightUpLeg  -62.5347 -0.111679 10.0011
RightLeg  112.43 23.1914 -15.6725
RightFoot  -1.7023 0.209611 -2.07249
RightToes  -5.82073e-011 -3.18055e-015 -2.98177e-016
Spine  35.6154 -3.63848 8.96515
Spine1  -9.4525 -0.653376 -9.52269
HEad  -15.796 0.779232 -0.404501
LeftShoulder1  -3.88251e-019 9.70628e-020 -3.87848e-018
LeftArm  -3.07959 -23.7094 -65.138
LeftForeArm  16.0354 -1.51551 -7.13771
LeftHand  -11.8363 -10.9658 74.2286
RightShoulder  2.72542 8.3044 12.0749
RightArm  2.36016 20.8617 72.7419
RightForeArm  6.39991 6.21198 -7.00974
RightHand  -10.892 9.78635 -71.8935
LeftUpLeg  -61.6704 5.21126 -12.2593
LeftLeg  113.871 -22.3428 17.5332
LeftFoot  -17.3964 -0.536463 -12.9685
LeftToes  -3.44176e-011 4.05998e-011 -5.21293e-012
